ffmpeg started on 2025-06-28 at 17:52:36
Report written to "D:\Convert\FFMetrics\reports\ssim_report-6.txt"
Log level: 32
Command line:
ffmpeg -hide_banner -nostdin -i "G:\\\xc0\xed\xe8\xec\xe5\\\xce\xed\xe3\xee\xe8\xed\xe3\xe8\\!_37_\xc7\xe8\xec\xe0_2025\\JamClub\\100 \xe4\xe5\xe2\xf3\xf8\xe5\xea, \xea\xee\xf2\xee\xf0\xfb\xe5 \xee\xf7\xe5\xed\xfc-\xee\xf7\xe5\xed\xfc-\xee\xf7\xe5\xed\xfc-\xee\xf7\xe5\xed\xfc-\xee\xf7\xe5\xed\xfc \xf1\xe8\xeb\xfc\xed\xee \xf2\xe5\xe1\xff \xeb\xfe\xe1\xff\xf2\\\xd2\xc2-2\\JamClub_The_100_Girlfriends_Who_Really_Really_Really_Really_REALLY_2_02_HEVC.mkv" -i "G:\\\xc0\xed\xe8\xec\xe5\\\xce\xed\xe3\xee\xe8\xed\xe3\xe8\\!_37_\xc7\xe8\xec\xe0_2025\\JamClub\\100 \xe4\xe5\xe2\xf3\xf8\xe5\xea, \xea\xee\xf2\xee\xf0\xfb\xe5 \xee\xf7\xe5\xed\xfc-\xee\xf7\xe5\xed\xfc-\xee\xf7\xe5\xed\xfc-\xee\xf7\xe5\xed\xfc-\xee\xf7\xe5\xed\xfc \xf1\xe8\xeb\xfc\xed\xee \xf2\xe5\xe1\xff \xeb\xfe\xe1\xff\xf2\\\xd2\xc2-2\\JamClub_The_100_Girlfriends_Who_Really_Really_Really_Really_REALLY_2_02.mp4" -lavfi "[0:v]settb=AVTB,setpts=PTS-STARTPTS,format=pix_fmts=yuv420p10,fps=24000/1001,scale=1920:1080:flags=bicubic[main];[1:v]settb=AVTB,setpts=PTS-STARTPTS,format=pix_fmts=yuv420p,fps=24000/1001,scale=1920:1080:flags=bicubic[ref];[main][ref]ssim=eof_action=endall:stats_file='D\\:/Convert/FFMetrics/logs/ssim_logfile-6.txt'" -f null -
Input #0, matroska,webm, from 'G:\Аниме\Онгоинги\!_37_Зима_2025\JamClub\100 девушек, которые очень-очень-очень-очень-очень сильно тебя любят\ТВ-2\JamClub_The_100_Girlfriends_Who_Really_Really_Really_Really_REALLY_2_02_HEVC.mkv':
  Metadata:
    COMPATIBLE_BRANDS: isomiso2avc1mp41
    MAJOR_BRAND     : isom
    MINOR_VERSION   : 512
    ENCODER         : Lavf61.7.100
  Duration: 00:24:12.27, start: -0.001000, bitrate: 1990 kb/s
  Stream #0:0: Video: hevc (Main 10), yuv420p10le(tv, bt709, progressive), 1920x1080 [SAR 1:1 DAR 16:9], 23.98 fps, 23.98 tbr, 1k tbn (default)
      Metadata:
        HANDLER_NAME    : VideoHandler
        VENDOR_ID       : [0][0][0][0]
        ENCODER         : Lavc61.19.100 libx265
        BPS             : 1792652
        DURATION        : 00:24:12.200708333
        NUMBER_OF_FRAMES: 34818
        NUMBER_OF_BYTES : 325411192
        _STATISTICS_WRITING_APP: mkvpropedit v66.0.0 ('Josie') 64-bit
        _STATISTICS_WRITING_DATE_UTC: 2025-06-28 12:28:43
        _STATISTICS_TAGS: BPS DURATION NUMBER_OF_FRAMES NUMBER_OF_BYTES
  Stream #0:1(eng): Audio: aac (LC), 48000 Hz, stereo, fltp (default)
      Metadata:
        HANDLER_NAME    : SoundHandler
        VENDOR_ID       : [0][0][0][0]
        ENCODER         : Lavc61.19.100 aac
        BPS             : 193527
        DURATION        : 00:24:12.227000000
        NUMBER_OF_FRAMES: 68074
        NUMBER_OF_BYTES : 35130646
        _STATISTICS_WRITING_APP: mkvpropedit v66.0.0 ('Josie') 64-bit
        _STATISTICS_WRITING_DATE_UTC: 2025-06-28 12:28:43
        _STATISTICS_TAGS: BPS DURATION NUMBER_OF_FRAMES NUMBER_OF_BYTES
Input #1, mov,mp4,m4a,3gp,3g2,mj2, from 'G:\Аниме\Онгоинги\!_37_Зима_2025\JamClub\100 девушек, которые очень-очень-очень-очень-очень сильно тебя любят\ТВ-2\JamClub_The_100_Girlfriends_Who_Really_Really_Really_Really_REALLY_2_02.mp4':
  Metadata:
    major_brand     : isom
    minor_version   : 512
    compatible_brands: isomiso2avc1mp41
    encoder         : Lavf60.16.100
  Duration: 00:24:12.25, start: 0.000000, bitrate: 5053 kb/s
  Stream #1:0[0x1](und): Video: h264 (High) (avc1 / 0x31637661), yuv420p(progressive), 1920x1080 [SAR 1:1 DAR 16:9], 4855 kb/s, 23.98 fps, 23.98 tbr, 90k tbn (default)
      Metadata:
        handler_name    : VideoHandler
        vendor_id       : [0][0][0][0]
  Stream #1:1[0x2](eng): Audio: aac (LC) (mp4a / 0x6134706D), 48000 Hz, stereo, fltp, 191 kb/s (default)
      Metadata:
        handler_name    : SoundHandler
        vendor_id       : [0][0][0][0]
Stream mapping:
  Stream #0:0 (hevc) -> settb:default
  Stream #1:0 (h264) -> settb:default
  ssim:default -> Stream #0:0 (wrapped_avframe)
  Stream #0:1 -> #0:1 (aac (native) -> pcm_s16le (native))
Output #0, null, to 'pipe:':
  Metadata:
    COMPATIBLE_BRANDS: isomiso2avc1mp41
    MAJOR_BRAND     : isom
    MINOR_VERSION   : 512
    encoder         : Lavf61.7.100
  Stream #0:0: Video: wrapped_avframe, yuv420p10le(tv, bt709, progressive), 1920x1080 [SAR 1:1 DAR 16:9], q=2-31, 200 kb/s, 23.98 fps, 23.98 tbn
      Metadata:
        encoder         : Lavc61.19.100 wrapped_avframe
  Stream #0:1(eng): Audio: pcm_s16le, 48000 Hz, stereo, s16, 1536 kb/s (default)
      Metadata:
        HANDLER_NAME    : SoundHandler
        VENDOR_ID       : [0][0][0][0]
        _STATISTICS_TAGS: BPS DURATION NUMBER_OF_FRAMES NUMBER_OF_BYTES
        BPS             : 193527
        DURATION        : 00:24:12.227000000
        NUMBER_OF_FRAMES: 68074
        NUMBER_OF_BYTES : 35130646
        _STATISTICS_WRITING_APP: mkvpropedit v66.0.0 ('Josie') 64-bit
        _STATISTICS_WRITING_DATE_UTC: 2025-06-28 12:28:43
        encoder         : Lavc61.19.100 pcm_s16le
frame=  112 fps=0.0 q=-0.0 size=N/A time=00:00:04.67 bitrate=N/A speed=9.07x    frame=  269 fps=263 q=-0.0 size=N/A time=00:00:11.21 bitrate=N/A speed=  11x    frame=  477 fps=307 q=-0.0 size=N/A time=00:00:19.89 bitrate=N/A speed=12.8x    frame=  649 fps=315 q=-0.0 size=N/A time=00:00:27.06 bitrate=N/A speed=13.1x    frame=  853 fps=332 q=-0.0 size=N/A time=00:00:35.57 bitrate=N/A speed=13.8x    frame= 1003 fps=324 q=-0.0 size=N/A time=00:00:41.83 bitrate=N/A speed=13.5x    frame= 1214 fps=336 q=-0.0 size=N/A time=00:00:50.63 bitrate=N/A speed=  14x    frame= 1453 fps=353 q=-0.0 size=N/A time=00:01:00.60 bitrate=N/A speed=14.7x    frame= 1707 fps=368 q=-0.0 size=N/A time=00:01:11.19 bitrate=N/A speed=15.3x    frame= 1940 fps=376 q=-0.0 size=N/A time=00:01:20.91 bitrate=N/A speed=15.7x    frame= 2175 fps=384 q=-0.0 size=N/A time=00:01:30.71 bitrate=N/A speed=  16x    frame= 2377 fps=384 q=-0.0 size=N/A time=00:01:39.14 bitrate=N/A speed=  16x    frame= 2584 fps=386 q=-0.0 size=N/A time=00:01:47.77 bitrate=N/A speed=16.1x    frame= 2822 fps=391 q=-0.0 size=N/A time=00:01:57.70 bitrate=N/A speed=16.3x    frame= 3012 fps=389 q=-0.0 size=N/A time=00:02:05.62 bitrate=N/A speed=16.2x    frame= 3246 fps=394 q=-0.0 size=N/A time=00:02:15.38 bitrate=N/A speed=16.4x    frame= 3430 fps=391 q=-0.0 size=N/A time=00:02:23.05 bitrate=N/A speed=16.3x    frame= 3589 fps=387 q=-0.0 size=N/A time=00:02:29.69 bitrate=N/A speed=16.1x    frame= 3776 fps=386 q=-0.0 size=N/A time=00:02:37.49 bitrate=N/A speed=16.1x    frame= 3937 fps=382 q=-0.0 size=N/A time=00:02:44.20 bitrate=N/A speed=15.9x    frame= 4183 fps=386 q=-0.0 size=N/A time=00:02:54.46 bitrate=N/A speed=16.1x    frame= 4363 fps=385 q=-0.0 size=N/A time=00:03:01.97 bitrate=N/A speed=  16x    frame= 4618 fps=390 q=-0.0 size=N/A time=00:03:12.60 bitrate=N/A speed=16.2x    frame= 4885 fps=395 q=-0.0 size=N/A time=00:03:23.74 bitrate=N/A speed=16.5x    frame= 5146 fps=399 q=-0.0 size=N/A time=00:03:34.63 bitrate=N/A speed=16.6x    frame= 5386 fps=402 q=-0.0 size=N/A time=00:03:44.64 bitrate=N/A speed=16.8x    frame= 5623 fps=404 q=-0.0 size=N/A time=00:03:54.52 bitrate=N/A speed=16.8x    frame= 5844 fps=405 q=-0.0 size=N/A time=00:04:03.74 bitrate=N/A speed=16.9x    frame= 6074 fps=406 q=-0.0 size=N/A time=00:04:13.33 bitrate=N/A speed=16.9x    frame= 6291 fps=407 q=-0.0 size=N/A time=00:04:22.38 bitrate=N/A speed=  17x    frame= 6496 fps=406 q=-0.0 size=N/A time=00:04:30.93 bitrate=N/A speed=  17x    frame= 6736 fps=408 q=-0.0 size=N/A time=00:04:40.94 bitrate=N/A speed=  17x    frame= 6992 fps=411 q=-0.0 size=N/A time=00:04:51.62 bitrate=N/A speed=17.1x    frame= 7213 fps=412 q=-0.0 size=N/A time=00:05:00.84 bitrate=N/A speed=17.2x    frame= 7428 fps=411 q=-0.0 size=N/A time=00:05:09.80 bitrate=N/A speed=17.2x    frame= 7638 fps=411 q=-0.0 size=N/A time=00:05:18.56 bitrate=N/A speed=17.2x    frame= 7873 fps=413 q=-0.0 size=N/A time=00:05:28.36 bitrate=N/A speed=17.2x    frame= 8081 fps=412 q=-0.0 size=N/A time=00:05:37.04 bitrate=N/A speed=17.2x    frame= 8326 fps=414 q=-0.0 size=N/A time=00:05:47.26 bitrate=N/A speed=17.3x    frame= 8542 fps=414 q=-0.0 size=N/A time=00:05:56.27 bitrate=N/A speed=17.3x    frame= 8720 fps=413 q=-0.0 size=N/A time=00:06:03.69 bitrate=N/A speed=17.2x    frame= 8885 fps=410 q=-0.0 size=N/A time=00:06:10.57 bitrate=N/A speed=17.1x    frame= 9034 fps=407 q=-0.0 size=N/A time=00:06:16.79 bitrate=N/A speed=  17x    frame= 9219 fps=406 q=-0.0 size=N/A time=00:06:24.50 bitrate=N/A speed=16.9x    frame= 9427 fps=406 q=-0.0 size=N/A time=00:06:33.18 bitrate=N/A speed=  17x    frame= 9689 fps=408 q=-0.0 size=N/A time=00:06:44.11 bitrate=N/A speed=  17x    frame= 9899 fps=408 q=-0.0 size=N/A time=00:06:52.87 bitrate=N/A speed=  17x    frame=10079 fps=407 q=-0.0 size=N/A time=00:07:00.37 bitrate=N/A speed=  17x    frame=10299 fps=408 q=-0.0 size=N/A time=00:07:09.55 bitrate=N/A speed=  17x    frame=10527 fps=408 q=-0.0 size=N/A time=00:07:19.06 bitrate=N/A speed=  17x    frame=10780 fps=410 q=-0.0 size=N/A time=00:07:29.61 bitrate=N/A speed=17.1x    frame=11034 fps=411 q=-0.0 size=N/A time=00:07:40.20 bitrate=N/A speed=17.2x    frame=11262 fps=412 q=-0.0 size=N/A time=00:07:49.71 bitrate=N/A speed=17.2x    frame=11495 fps=413 q=-0.0 size=N/A time=00:07:59.43 bitrate=N/A speed=17.2x    frame=11685 fps=412 q=-0.0 size=N/A time=00:08:07.36 bitrate=N/A speed=17.2x    frame=11902 fps=412 q=-0.0 size=N/A time=00:08:16.41 bitrate=N/A speed=17.2x    frame=12133 fps=413 q=-0.0 size=N/A time=00:08:26.04 bitrate=N/A speed=17.2x    frame=12411 fps=415 q=-0.0 size=N/A time=00:08:37.64 bitrate=N/A speed=17.3x    frame=12666 fps=416 q=-0.0 size=N/A time=00:08:48.27 bitrate=N/A speed=17.4x    frame=12893 fps=417 q=-0.0 size=N/A time=00:08:57.74 bitrate=N/A speed=17.4x    frame=13157 fps=418 q=-0.0 size=N/A time=00:09:08.75 bitrate=N/A speed=17.4x    frame=13389 fps=419 q=-0.0 size=N/A time=00:09:18.43 bitrate=N/A speed=17.5x    frame=13634 fps=420 q=-0.0 size=N/A time=00:09:28.65 bitrate=N/A speed=17.5x    frame=13832 fps=419 q=-0.0 size=N/A time=00:09:36.90 bitrate=N/A speed=17.5x    frame=14043 fps=419 q=-0.0 size=N/A time=00:09:45.71 bitrate=N/A speed=17.5x    frame=14236 fps=418 q=-0.0 size=N/A time=00:09:53.75 bitrate=N/A speed=17.5x    frame=14468 fps=419 q=-0.0 size=N/A time=00:10:03.43 bitrate=N/A speed=17.5x    frame=14680 fps=419 q=-0.0 size=N/A time=00:10:12.27 bitrate=N/A speed=17.5x    frame=14846 fps=417 q=-0.0 size=N/A time=00:10:19.20 bitrate=N/A speed=17.4x    frame=15027 fps=416 q=-0.0 size=N/A time=00:10:26.75 bitrate=N/A speed=17.4x    frame=15258 fps=417 q=-0.0 size=N/A time=00:10:36.38 bitrate=N/A speed=17.4x    frame=15391 fps=415 q=-0.0 size=N/A time=00:10:41.93 bitrate=N/A speed=17.3x    frame=15521 fps=412 q=-0.0 size=N/A time=00:10:47.35 bitrate=N/A speed=17.2x    frame=15724 fps=412 q=-0.0 size=N/A time=00:10:55.82 bitrate=N/A speed=17.2x    frame=15975 fps=413 q=-0.0 size=N/A time=00:11:06.29 bitrate=N/A speed=17.2x    frame=16201 fps=413 q=-0.0 size=N/A time=00:11:15.71 bitrate=N/A speed=17.2x    frame=16426 fps=414 q=-0.0 size=N/A time=00:11:25.10 bitrate=N/A speed=17.3x    frame=16682 fps=415 q=-0.0 size=N/A time=00:11:35.77 bitrate=N/A speed=17.3x    frame=16888 fps=414 q=-0.0 size=N/A time=00:11:44.37 bitrate=N/A speed=17.3x    frame=17114 fps=415 q=-0.0 size=N/A time=00:11:53.79 bitrate=N/A speed=17.3x    frame=17294 fps=414 q=-0.0 size=N/A time=00:12:01.30 bitrate=N/A speed=17.3x    frame=17507 fps=414 q=-0.0 size=N/A time=00:12:10.18 bitrate=N/A speed=17.3x    frame=17701 fps=414 q=-0.0 size=N/A time=00:12:18.27 bitrate=N/A speed=17.2x    frame=17891 fps=413 q=-0.0 size=N/A time=00:12:26.20 bitrate=N/A speed=17.2x    frame=18068 fps=412 q=-0.0 size=N/A time=00:12:33.58 bitrate=N/A speed=17.2x    frame=18294 fps=412 q=-0.0 size=N/A time=00:12:43.01 bitrate=N/A speed=17.2x    frame=18532 fps=413 q=-0.0 size=N/A time=00:12:52.93 bitrate=N/A speed=17.2x    frame=18705 fps=412 q=-0.0 size=N/A time=00:13:00.15 bitrate=N/A speed=17.2x    frame=18882 fps=411 q=-0.0 size=N/A time=00:13:07.53 bitrate=N/A speed=17.2x    frame=19092 fps=411 q=-0.0 size=N/A time=00:13:16.29 bitrate=N/A speed=17.2x    frame=19341 fps=412 q=-0.0 size=N/A time=00:13:26.68 bitrate=N/A speed=17.2x    frame=19561 fps=412 q=-0.0 size=N/A time=00:13:35.85 bitrate=N/A speed=17.2x    frame=19824 fps=413 q=-0.0 size=N/A time=00:13:46.82 bitrate=N/A speed=17.2x    frame=20022 fps=413 q=-0.0 size=N/A time=00:13:55.08 bitrate=N/A speed=17.2x    frame=20268 fps=414 q=-0.0 size=N/A time=00:14:05.34 bitrate=N/A speed=17.3x    frame=20467 fps=413 q=-0.0 size=N/A time=00:14:13.64 bitrate=N/A speed=17.2x    frame=20708 fps=414 q=-0.0 size=N/A time=00:14:23.69 bitrate=N/A speed=17.3x    frame=20916 fps=414 q=-0.0 size=N/A time=00:14:32.37 bitrate=N/A speed=17.3x    frame=21171 fps=415 q=-0.0 size=N/A time=00:14:43.00 bitrate=N/A speed=17.3x    frame=21411 fps=415 q=-0.0 size=N/A time=00:14:53.01 bitrate=N/A speed=17.3x    frame=21619 fps=415 q=-0.0 size=N/A time=00:15:01.69 bitrate=N/A speed=17.3x    frame=21858 fps=415 q=-0.0 size=N/A time=00:15:11.66 bitrate=N/A speed=17.3x    frame=22047 fps=415 q=-0.0 size=N/A time=00:15:19.54 bitrate=N/A speed=17.3x    frame=22230 fps=414 q=-0.0 size=N/A time=00:15:27.17 bitrate=N/A speed=17.3x    frame=22458 fps=415 q=-0.0 size=N/A time=00:15:36.68 bitrate=N/A speed=17.3x    frame=22706 fps=415 q=-0.0 size=N/A time=00:15:47.02 bitrate=N/A speed=17.3x    frame=22948 fps=416 q=-0.0 size=N/A time=00:15:57.12 bitrate=N/A speed=17.3x    frame=23224 fps=417 q=-0.0 size=N/A time=00:16:08.63 bitrate=N/A speed=17.4x    frame=23443 fps=417 q=-0.0 size=N/A time=00:16:17.76 bitrate=N/A speed=17.4x    frame=23677 fps=417 q=-0.0 size=N/A time=00:16:27.52 bitrate=N/A speed=17.4x    frame=23952 fps=418 q=-0.0 size=N/A time=00:16:38.99 bitrate=N/A speed=17.4x    frame=24184 fps=419 q=-0.0 size=N/A time=00:16:48.67 bitrate=N/A speed=17.5x    frame=24418 fps=419 q=-0.0 size=N/A time=00:16:58.43 bitrate=N/A speed=17.5x    frame=24635 fps=419 q=-0.0 size=N/A time=00:17:07.48 bitrate=N/A speed=17.5x    frame=24853 fps=419 q=-0.0 size=N/A time=00:17:16.57 bitrate=N/A speed=17.5x    frame=25054 fps=419 q=-0.0 size=N/A time=00:17:24.96 bitrate=N/A speed=17.5x    frame=25261 fps=419 q=-0.0 size=N/A time=00:17:33.59 bitrate=N/A speed=17.5x    frame=25517 fps=419 q=-0.0 size=N/A time=00:17:44.27 bitrate=N/A speed=17.5x    frame=25761 fps=420 q=-0.0 size=N/A time=00:17:54.44 bitrate=N/A speed=17.5x    frame=25980 fps=420 q=-0.0 size=N/A time=00:18:03.58 bitrate=N/A speed=17.5x    frame=26244 fps=420 q=-0.0 size=N/A time=00:18:14.59 bitrate=N/A speed=17.5x    frame=26488 fps=421 q=-0.0 size=N/A time=00:18:24.77 bitrate=N/A speed=17.6x    frame=26739 fps=421 q=-0.0 size=N/A time=00:18:35.23 bitrate=N/A speed=17.6x    frame=26991 fps=422 q=-0.0 size=N/A time=00:18:45.74 bitrate=N/A speed=17.6x    frame=27198 fps=422 q=-0.0 size=N/A time=00:18:54.38 bitrate=N/A speed=17.6x    frame=27439 fps=422 q=-0.0 size=N/A time=00:19:04.43 bitrate=N/A speed=17.6x    frame=27617 fps=421 q=-0.0 size=N/A time=00:19:11.85 bitrate=N/A speed=17.6x    frame=27820 fps=421 q=-0.0 size=N/A time=00:19:20.32 bitrate=N/A speed=17.6x    frame=28038 fps=421 q=-0.0 size=N/A time=00:19:29.41 bitrate=N/A speed=17.6x    frame=28273 fps=421 q=-0.0 size=N/A time=00:19:39.21 bitrate=N/A speed=17.6x    frame=28485 fps=421 q=-0.0 size=N/A time=00:19:48.06 bitrate=N/A speed=17.6x    frame=28709 fps=422 q=-0.0 size=N/A time=00:19:57.40 bitrate=N/A speed=17.6x    frame=28958 fps=422 q=-0.0 size=N/A time=00:20:07.83 bitrate=N/A speed=17.6x    frame=29191 fps=422 q=-0.0 size=N/A time=00:20:17.50 bitrate=N/A speed=17.6x    frame=29427 fps=422 q=-0.0 size=N/A time=00:20:27.35 bitrate=N/A speed=17.6x    frame=29685 fps=423 q=-0.0 size=N/A time=00:20:38.11 bitrate=N/A speed=17.6x    frame=29871 fps=422 q=-0.0 size=N/A time=00:20:45.86 bitrate=N/A speed=17.6x    frame=30081 fps=422 q=-0.0 size=N/A time=00:20:54.62 bitrate=N/A speed=17.6x    frame=30312 fps=423 q=-0.0 size=N/A time=00:21:04.26 bitrate=N/A speed=17.6x    frame=30513 fps=422 q=-0.0 size=N/A time=00:21:12.64 bitrate=N/A speed=17.6x    frame=30707 fps=422 q=-0.0 size=N/A time=00:21:20.73 bitrate=N/A speed=17.6x    frame=30971 fps=423 q=-0.0 size=N/A time=00:21:31.74 bitrate=N/A speed=17.6x    frame=31244 fps=423 q=-0.0 size=N/A time=00:21:43.13 bitrate=N/A speed=17.7x    frame=31505 fps=424 q=-0.0 size=N/A time=00:21:54.02 bitrate=N/A speed=17.7x    frame=31756 fps=424 q=-0.0 size=N/A time=00:22:04.48 bitrate=N/A speed=17.7x    frame=32003 fps=425 q=-0.0 size=N/A time=00:22:14.79 bitrate=N/A speed=17.7x    frame=32229 fps=425 q=-0.0 size=N/A time=00:22:24.21 bitrate=N/A speed=17.7x    frame=32437 fps=425 q=-0.0 size=N/A time=00:22:32.89 bitrate=N/A speed=17.7x    frame=32617 fps=424 q=-0.0 size=N/A time=00:22:40.40 bitrate=N/A speed=17.7x    frame=32859 fps=424 q=-0.0 size=N/A time=00:22:50.49 bitrate=N/A speed=17.7x    frame=33090 fps=425 q=-0.0 size=N/A time=00:23:00.12 bitrate=N/A speed=17.7x    frame=33297 fps=425 q=-0.0 size=N/A time=00:23:08.76 bitrate=N/A speed=17.7x    frame=33504 fps=424 q=-0.0 size=N/A time=00:23:17.39 bitrate=N/A speed=17.7x    frame=33673 fps=424 q=-0.0 size=N/A time=00:23:24.44 bitrate=N/A speed=17.7x    frame=33796 fps=422 q=-0.0 size=N/A time=00:23:29.57 bitrate=N/A speed=17.6x    frame=33910 fps=421 q=-0.0 size=N/A time=00:23:34.32 bitrate=N/A speed=17.6x    frame=34029 fps=420 q=-0.0 size=N/A time=00:23:39.29 bitrate=N/A speed=17.5x    frame=34161 fps=419 q=-0.0 size=N/A time=00:23:44.79 bitrate=N/A speed=17.5x    frame=34365 fps=419 q=-0.0 size=N/A time=00:23:53.30 bitrate=N/A speed=17.5x    frame=34570 fps=419 q=-0.0 size=N/A time=00:24:01.85 bitrate=N/A speed=17.5x    [Parsed_ssim_10 @ 00000292dc579180] SSIM Y:0.994859 (22.889172) U:0.994165 (22.339592) V:0.993733 (22.029576) All:0.994555 (22.640364)
[out#0/null @ 00000292dbbe2f00] video:14961KiB audio:272296KiB subtitle:0KiB other streams:0KiB global headers:0KiB muxing overhead: unknown
frame=34818 fps=419 q=-0.0 Lsize=N/A time=00:24:12.20 bitrate=N/A speed=17.5x    
